<?xml version="1.0" standalone="no"?>
<!DOCTYPE svg PUBLIC "-//W3C//DTD SVG 20010904//EN"
 "http://www.w3.org/TR/2001/REC-SVG-20010904/DTD/svg10.dtd">
<svg version="1.0" xmlns="http://www.w3.org/2000/svg"
 width="1024.000000pt" height="1024.000000pt" viewBox="0 0 1024.000000 1024.000000"
 preserveAspectRatio="xMidYMid meet">

<g transform="translate(0.000000,1024.000000) scale(0.100000,-0.100000)"
fill="#000000" stroke="none">
<path d="M0 5120 l0 -5120 5120 0 5120 0 0 5120 0 5120 -5120 0 -5120 0 0
-5120z m4520 3551 c47 -34 34 -117 -23 -145 -18 -8 -78 -26 -133 -40 -213 -54
-456 -147 -709 -270 l-170 -84 -95 -4 c-109 -5 -152 -22 -211 -85 -43 -44 -79
-112 -79 -146 0 -16 -10 -31 -27 -42 -98 -63 -392 -344 -525 -502 -231 -274
-387 -516 -518 -802 -148 -325 -236 -639 -286 -1026 -23 -171 -26 -634 -6
-785 107 -801 423 -1461 960 -2004 282 -285 554 -483 913 -666 317 -162 670
-275 1039 -333 119 -19 177 -21 480 -22 413 0 475 7 810 91 480 119 929 344
1340 671 102 81 303 280 421 418 223 259 425 580 545 865 349 831 372 1735 67
2555 -54 145 -179 406 -258 541 -227 386 -601 796 -959 1052 -219 158 -470
299 -701 396 -123 52 -386 141 -525 178 -145 38 -185 58 -199 98 -16 46 7 94
51 109 30 10 57 5 234 -43 574 -158 1054 -406 1454 -752 184 -158 383 -367
532 -554 609 -769 873 -1778 722 -2765 -57 -375 -173 -743 -334 -1065 -260
-516 -688 -1017 -1140 -1331 -471 -327 -1002 -539 -1555 -619 -698 -102 -1430
13 -2065 325 -92 46 -213 109 -267 141 -537 314 -999 786 -1305 1331 -343 614
-502 1339 -448 2044 53 670 272 1272 664 1823 107 150 241 303 425 487 381
380 763 623 1316 836 140 54 487 153 515 147 14 -3 36 -13 50 -23z m621 -67
c8 -9 14 -44 15 -80 1 -36 3 -67 6 -69 3 -3 31 -12 63 -20 31 -9 70 -24 85
-35 37 -26 44 -25 72 9 13 15 35 35 49 44 23 15 27 15 47 1 31 -21 28 -34 -20
-89 -36 -41 -40 -50 -29 -67 31 -49 52 -98 63 -146 l13 -52 55 0 c60 0 80 -11
80 -46 0 -27 -17 -34 -86 -34 -48 0 -54 -2 -54 -20 0 -32 -39 -141 -62 -172
l-20 -29 42 -45 c31 -34 40 -52 38 -72 -5 -47 -43 -41 -98 13 l-48 48 -29 -20
c-32 -22 -69 -37 -131 -53 l-43 -11 6 -44 c14 -89 -22 -148 -65 -105 -16 16
-20 33 -20 84 l0 63 -47 13 c-27 7 -71 25 -100 41 l-52 29 -37 -45 c-28 -34
-43 -45 -65 -45 -22 0 -30 6 -35 26 -5 21 1 33 37 70 l43 44 -34 62 c-19 35
-39 85 -45 113 l-11 50 -59 3 c-78 4 -100 23 -75 62 6 10 31 17 71 20 l62 5
14 55 c7 30 27 77 43 103 17 27 30 52 30 56 0 4 -18 25 -40 46 -45 43 -49 64
-21 89 24 22 44 12 90 -40 l33 -36 51 25 c50 25 61 28 120 41 26 6 27 8 27 75
0 50 4 74 16 85 20 20 38 20 55 0z m-842 -319 c23 -22 18 -75 -8 -97 -47 -38
-111 -11 -111 47 0 63 74 94 119 50z m1632 -125 c32 -18 15 -90 -22 -90 -12 0
-49 37 -49 50 0 11 36 50 46 50 3 0 14 -5 25 -10z m169 -8 c43 -34 -4 -97 -48
-66 -26 18 -28 46 -6 68 20 20 27 20 54 -2z m161 8 c26 -14 24 -55 -3 -74 -43
-30 -85 27 -47 65 22 22 24 22 50 9z m-2018 -179 l77 -1 0 -55 0 -55 -540 0
c-367 0 -540 3 -540 10 0 6 17 29 39 52 31 34 47 43 87 49 41 5 266 5 877 0z
m2300 -21 c34 -27 41 -53 23 -88 -26 -50 -82 -58 -115 -16 -28 35 -26 69 4 99
29 30 54 31 88 5z m-155 -33 c2 -9 -6 -25 -18 -37 -19 -19 -24 -20 -43 -7 -31
20 -33 52 -6 71 20 13 26 14 44 2 11 -7 21 -20 23 -29z m316 11 c25 -41 -35
-75 -68 -39 -14 16 -15 23 -6 41 14 26 57 24 74 -2z m-568 -157 c39 -18 84
-66 84 -90 0 -8 79 -11 263 -11 278 0 309 -5 315 -47 2 -11 -4 -28 -13 -37
-14 -14 -51 -16 -288 -16 l-272 0 -17 -29 c-19 -35 -85 -71 -128 -71 -99 0
-184 104 -159 195 19 67 87 124 149 124 14 0 43 -8 66 -18z m-1816 -286 l0
-285 -550 0 -550 0 0 285 0 285 550 0 550 0 0 -285z m3135 -146 c163 -166 301
-312 307 -324 16 -35 2 -74 -29 -81 -23 -6 -46 14 -252 220 -124 125 -234 232
-244 237 -15 9 -17 5 -17 -39 l0 -48 133 -140 c291 -305 297 -312 261 -348
-33 -34 -59 -20 -150 79 -48 52 -91 95 -96 95 -4 0 -8 -302 -8 -672 0 -611 -1
-673 -17 -690 -22 -24 -49 -23 -67 4 -14 20 -16 108 -16 748 l0 726 -41 39
c-23 22 -59 62 -80 88 l-39 49 0 163 c0 90 3 170 6 179 17 44 51 17 349 -285z
m-4397 157 l3 -48 -239 -242 c-132 -134 -247 -255 -256 -269 -15 -23 -17 -72
-17 -494 1 -496 -1 -515 -46 -521 -11 -2 -28 4 -37 13 -14 15 -16 68 -16 511
0 342 3 502 11 517 16 32 572 588 584 584 5 -2 11 -25 13 -51z m3771 -74 c50
-36 73 -82 68 -133 -5 -61 -37 -103 -92 -124 -75 -29 -152 2 -190 76 -65 125
100 266 214 181z m-533 -102 c21 -18 17 -57 -8 -74 -20 -14 -119 -16 -870 -16
-835 0 -848 0 -868 20 -11 11 -20 26 -20 33 0 17 21 44 39 49 7 2 395 3 863 2
643 -2 853 -5 864 -14z m-569 -247 c13 -9 28 -24 34 -34 9 -18 35 -19 600 -19
643 0 642 0 668 -56 8 -18 11 -529 11 -1940 0 -2093 4 -1958 -57 -1983 -21 -8
-500 -11 -1885 -9 l-1857 3 -23 23 -23 23 0 1944 0 1944 23 23 23 23 1141 3
1142 2 31 30 c16 16 41 34 55 39 30 13 84 5 117 -16z m-2763 -64 c58 -46 9
-143 -60 -119 -30 11 -54 44 -54 76 0 21 46 64 68 64 11 0 31 -10 46 -21z m11
-396 c40 -55 43 -72 15 -96 -19 -16 -20 -29 -19 -509 0 -479 0 -492 -20 -511
-17 -18 -24 -19 -46 -9 -14 6 -25 20 -25 29 -4 869 -6 997 -15 1000 -44 15
-43 36 5 102 40 54 61 53 105 -6z m4772 15 c11 -13 29 -38 39 -56 19 -34 19
-34 -3 -52 l-23 -18 0 -376 0 -376 -25 -16 c-23 -15 -27 -15 -50 0 l-25 16 0
379 c0 376 0 379 -21 393 -19 12 -20 17 -9 39 25 47 61 89 79 89 10 0 27 -10
38 -22z m-5459 -51 c4 -35 -37 -64 -67 -47 -27 14 -27 55 0 74 29 20 63 6 67
-27z m5826 -108 c53 -63 67 -119 30 -119 -12 0 -14 -51 -14 -304 0 -304 0
-305 -22 -320 -29 -20 -34 -20 -58 4 -19 19 -20 33 -20 319 0 291 -1 300 -20
306 -11 3 -20 15 -20 25 0 20 75 120 89 120 5 0 21 -14 35 -31z m-5834 -44
c24 -29 -13 -82 -49 -70 -26 8 -38 50 -21 70 16 19 54 19 70 0z m5260 -160
c16 -19 10 -45 -15 -61 -39 -26 -86 31 -53 64 16 16 53 15 68 -3z m-5434 -99
c14 -11 19 -26 18 -60 l-1 -46 43 0 c97 0 100 -86 4 -92 l-45 -3 -3 -55 c-3
-55 -12 -70 -44 -70 -32 0 -50 30 -46 79 l2 46 -49 5 c-48 5 -50 6 -53 39 -4
40 9 51 59 51 36 0 36 0 43 52 9 67 31 84 72 54z m5438 -78 c14 -23 -3 -52
-33 -56 -42 -6 -67 38 -39 66 17 17 58 11 72 -10z m-4852 -545 c126 -126 231
-238 234 -250 3 -12 2 -28 -3 -36 -4 -9 -108 -117 -231 -241 -185 -188 -228
-226 -251 -226 -23 0 -70 41 -270 239 -207 204 -241 242 -232 258 5 10 115
123 243 251 173 171 240 232 258 232 17 0 83 -60 252 -227z m5271 -23 c134
-51 251 -164 297 -287 30 -81 37 -209 16 -291 -67 -261 -289 -415 -551 -382
-131 17 -209 56 -296 147 -79 82 -119 166 -139 287 -18 114 30 275 114 379 34
43 134 119 182 138 111 45 273 49 377 9z m-4995 -516 c26 -18 28 -41 5 -66
-20 -22 -41 -23 -65 -1 -23 21 -23 38 2 63 24 24 29 24 58 4z m-964 -50 c29
-28 14 -84 -21 -84 -15 0 -53 36 -53 50 0 13 37 50 49 50 5 0 17 -7 25 -16z
m964 -156 c17 -17 17 -649 0 -666 -15 -15 -51 -15 -66 0 -17 17 -17 649 0 666
7 7 21 12 33 12 12 0 26 -5 33 -12z m-952 -33 c27 -41 -39 -88 -74 -53 -17 17
-15 44 4 63 21 21 53 16 70 -10z m763 -39 c8 -9 11 -91 9 -276 -3 -257 -3
-263 -25 -277 -19 -13 -24 -12 -42 6 -20 20 -21 31 -21 279 0 187 3 261 12
270 16 16 53 15 67 -2z m-383 -161 c45 -19 112 -82 137 -129 33 -64 31 -176
-5 -237 -53 -89 -125 -131 -228 -132 -147 0 -255 93 -267 232 -9 100 35 193
114 242 77 48 171 57 249 24z m4941 -97 c29 -27 29 -65 1 -95 -27 -29 -65 -29
-95 -1 -29 27 -29 65 -1 95 27 29 65 29 95 1z m353 -180 c26 -28 25 -56 -2
-85 -58 -62 -150 24 -93 87 24 27 69 25 95 -2z m441 -6 c47 -39 16 -122 -45
-122 -61 0 -91 83 -44 123 26 22 60 22 89 -1z m-781 -161 c5 -11 10 -42 10
-70 l0 -51 267 0 c234 0 269 -2 285 -17 22 -19 24 -56 4 -72 -10 -9 -91 -12
-285 -11 l-271 1 0 -500 0 -500 -22 -15 c-28 -20 -30 -20 -56 4 l-22 21 0 592
c0 520 2 595 16 615 19 27 60 29 74 3z m-5022 -173 c17 -17 17 -409 0 -426
-18 -18 -56 -14 -68 7 -6 12 -10 99 -10 213 0 204 3 218 45 218 12 0 26 -5 33
-12z m502 -220 c25 -13 46 -30 48 -39 2 -11 -62 -83 -167 -190 -158 -162 -171
-173 -186 -158 -11 11 -19 40 -22 83 -8 94 10 133 111 239 80 84 85 87 128 87
26 0 62 -9 88 -22z m5256 -15 c18 -24 17 -43 -3 -65 -15 -17 -37 -18 -281 -18
-233 0 -268 2 -284 17 -21 18 -24 53 -6 71 9 9 86 12 286 12 250 0 276 -2 288
-17z m-5090 -208 c11 -28 14 -103 14 -399 l0 -366 -26 -16 c-31 -21 -68 -11
-95 26 -16 22 -18 50 -20 215 -1 105 -4 193 -6 197 -1 3 -33 -25 -70 -63 -36
-38 -72 -69 -79 -69 -7 0 -22 12 -33 26 -16 21 -21 41 -21 91 l0 63 157 165
c86 91 158 165 160 165 2 0 11 -16 19 -35z m4612 -32 c50 -42 24 -123 -38
-123 -61 0 -90 72 -48 117 26 27 58 30 86 6z m-2 -238 c19 -29 -6 -65 -45 -65
-29 0 -41 15 -41 49 0 43 61 54 86 16z m-3745 -391 c9 -12 99 -14 527 -14 466
0 517 -2 534 -17 22 -20 23 -41 1 -65 -15 -17 -45 -18 -522 -18 -480 0 -509
-1 -544 -19 -84 -43 -165 28 -124 109 22 43 100 57 128 24z m3279 6 c93 -47
113 -158 44 -239 -51 -61 -152 -61 -213 0 -60 59 -61 156 -4 211 53 51 110 60
173 28z m-482 -32 c19 -19 15 -66 -7 -78 -13 -7 -294 -10 -842 -10 -771 0
-823 1 -835 18 -18 23 -17 42 3 64 15 17 55 18 843 18 629 0 829 -3 838 -12z
m-3138 -67 c5 -11 10 -38 10 -60 l0 -41 43 0 c47 0 67 -13 67 -45 0 -32 -20
-45 -67 -45 l-43 0 0 -43 c0 -56 -17 -80 -55 -75 -28 3 -31 7 -39 60 l-9 57
-51 3 c-55 3 -64 15 -52 64 6 21 12 24 55 24 l48 0 6 50 c3 28 9 55 12 60 11
18 64 11 75 -9z m2610 -121 c40 -11 104 -71 119 -113 58 -152 -92 -301 -244
-243 -44 17 -115 86 -115 112 0 6 -7 15 -16 18 -9 3 -299 6 -645 6 l-629 0
-12 25 c-9 20 -8 31 2 50 l13 25 641 0 641 0 19 34 c41 77 133 112 226 86z
m482 -44 c4 -6 8 -30 8 -53 l0 -43 43 0 c47 0 67 -13 67 -45 0 -32 -20 -45
-67 -45 l-43 0 0 -39 c0 -58 -15 -91 -42 -91 -39 0 -49 14 -52 71 l-3 54 -48
1 c-102 3 -101 94 1 94 42 0 44 1 44 29 0 43 16 79 37 83 22 5 45 -2 55 -16z
m-2355 -69 c76 -40 132 -127 140 -217 21 -232 -252 -366 -429 -210 -106 93
-119 243 -32 357 68 89 220 122 321 70z m1180 -310 c-1 -5 -23 -17 -47 -26
-112 -41 -122 -194 -17 -244 19 -9 39 -17 45 -17 11 0 22 -46 14 -55 -3 -3
-171 -5 -374 -5 l-368 0 0 36 c0 19 4 33 9 29 19 -11 95 14 123 42 79 79 31
201 -87 218 -41 7 -45 10 -45 36 l0 29 368 2 c353 3 367 2 375 -16 4 -11 6
-24 4 -29z m854 -77 c23 -13 25 -53 3 -74 -13 -14 -54 -16 -291 -16 -243 0
-279 2 -295 17 -22 20 -23 46 -2 67 13 14 54 16 290 16 171 0 283 -4 295 -10z
m-1523 -38 c17 -22 15 -52 -5 -74 -46 -51 -123 20 -80 74 23 30 60 30 85 0z
m715 11 c32 -37 22 -85 -24 -103 -27 -11 -32 -10 -54 10 -32 30 -33 73 -3 94
29 21 61 20 81 -1z"/>
<path d="M5025 8231 c-79 -35 -121 -112 -113 -206 14 -166 224 -239 343 -120
51 50 69 100 63 167 -13 135 -165 218 -293 159z m167 -111 c38 -47 35 -105 -8
-145 -98 -91 -239 52 -144 147 28 28 35 30 82 26 38 -4 57 -12 70 -28z"/>
<path d="M3683 7602 c-322 -2 -333 -3 -343 -23 -6 -11 -8 -29 -5 -40 6 -19 16
-19 367 -17 331 3 362 4 372 21 14 22 -2 49 -35 56 -13 4 -173 5 -356 3z"/>
<path d="M3338 7384 c-9 -18 -9 -30 -1 -42 9 -15 42 -17 328 -17 309 0 318 1
331 20 12 18 11 24 -2 43 -15 22 -17 22 -330 22 l-314 0 -12 -26z"/>
<path d="M3309 6893 c-2 -10 -3 -854 -1 -1875 l2 -1858 1805 0 1805 0 0 1875
0 1875 -579 0 c-513 0 -580 -2 -592 -16 -20 -24 -65 -44 -99 -44 -34 0 -79 20
-99 44 -12 14 -128 16 -1126 16 -1052 0 -1113 -1 -1116 -17z m3458 -1828 c1
-918 0 -1685 -3 -1702 l-5 -33 -1649 0 -1650 0 0 1705 0 1705 1653 -2 1652 -3
2 -1670z"/>
<path d="M3622 5038 l3 -1523 1486 -3 1487 -2 6 172 c4 95 5 781 4 1523 l-3
1350 -1493 3 -1492 2 2 -1522z m2801 1362 l27 0 0 -1365 0 -1365 -1335 0
-1335 0 0 1364 c0 901 3 1365 10 1368 7 2 2249 1 2633 -2z"/>
<path d="M3967 6233 c-15 -14 -7 -63 12 -73 12 -6 128 -10 306 -10 178 0 294
4 306 10 21 12 25 50 7 68 -9 9 -93 12 -318 12 -169 0 -310 -3 -313 -7z"/>
<path d="M6085 6186 c-94 -94 32 -236 133 -151 36 31 46 66 32 111 -21 63
-118 87 -165 40z"/>
<path d="M3972 6018 c-7 -7 -12 -21 -12 -33 0 -12 5 -26 12 -33 9 -9 187 -12
738 -12 715 0 727 0 745 20 15 17 16 24 7 45 l-12 25 -733 0 c-557 0 -736 -3
-745 -12z"/>
<path d="M4220 5160 l0 -560 100 0 100 0 0 196 0 197 98 -7 c196 -13 319 22
409 117 67 70 96 147 96 247 -1 177 -107 307 -290 355 -43 11 -115 15 -285 15
l-228 0 0 -560z m527 337 c106 -73 112 -215 12 -290 -38 -28 -91 -36 -221 -37
l-118 0 0 181 0 181 143 -4 c138 -3 145 -4 184 -31z"/>
<path d="M5290 5160 l0 -561 98 3 97 3 0 233 0 232 173 0 173 0 -7 -235 -7
-235 101 0 102 0 0 550 c0 303 0 553 0 558 0 4 -44 7 -97 7 l-98 0 -3 -227 -2
-228 -165 0 -165 0 -2 228 -3 227 -97 3 -98 3 0 -561z"/>
<path d="M4105 4319 c-85 -25 -153 -135 -142 -231 6 -51 35 -114 63 -139 87
-77 227 -78 306 -2 l27 25 -29 24 c-33 28 -43 29 -76 7 -14 -9 -45 -17 -69
-17 -56 -1 -95 27 -115 82 -29 82 24 163 108 164 23 0 55 -8 74 -19 l33 -19
37 25 38 25 -22 24 c-50 53 -150 76 -233 51z"/>
<path d="M4738 4320 c-125 -37 -184 -205 -115 -323 87 -148 308 -141 387 13
59 116 8 254 -112 305 -40 16 -115 19 -160 5z m151 -116 c17 -14 36 -44 43
-66 11 -36 9 -45 -11 -83 -46 -87 -162 -94 -211 -12 -35 56 -20 135 32 171 36
26 111 21 147 -10z"/>
<path d="M5310 4111 l0 -221 83 0 c104 1 150 11 201 47 80 56 110 166 72 258
-40 94 -101 127 -248 133 l-108 5 0 -222z m236 85 c30 -30 34 -40 34 -86 0
-46 -4 -56 -34 -86 -30 -30 -40 -34 -85 -34 l-51 0 0 120 0 120 51 0 c45 0 55
-4 85 -34z"/>
<path d="M5950 4110 l0 -220 151 0 150 0 -3 48 -3 47 -95 0 -95 0 -3 37 -3 37
68 3 68 3 3 43 3 42 -70 0 -71 0 0 40 0 39 98 3 97 3 3 48 3 47 -150 0 -151 0
0 -220z"/>
<path d="M2377 5532 c-31 -32 -57 -61 -57 -65 0 -4 27 -35 60 -68 l59 -60 61
62 61 62 -23 26 c-48 56 -92 101 -98 101 -3 0 -31 -26 -63 -58z"/>
<path d="M2197 5359 c-31 -35 -57 -65 -57 -69 0 -3 27 -32 60 -65 l60 -60 63
63 62 62 -66 65 -65 66 -57 -62z"/>
<path d="M2553 5352 c-29 -31 -53 -59 -53 -62 0 -13 103 -120 115 -120 7 0 36
27 65 60 58 68 59 60 -14 138 -22 23 -45 42 -51 41 -5 0 -34 -26 -62 -57z"/>
<path d="M2377 5180 c-31 -34 -57 -64 -57 -68 1 -4 27 -35 58 -69 l58 -63 64
65 65 65 -66 66 -66 65 -56 -61z"/>
<path d="M7830 5404 c-13 -34 -8 -39 42 -52 61 -16 128 -61 162 -110 28 -42
48 -50 75 -33 43 27 -73 162 -172 199 -76 29 -95 28 -107 -4z"/>
<path d="M7643 5414 c-21 -9 -15 -52 7 -59 36 -11 62 4 58 33 -2 21 -9 27 -28
29 -14 1 -31 -1 -37 -3z"/>
<path d="M7494 5288 c-101 -120 -110 -303 -22 -434 47 -69 137 -136 185 -138
34 -1 38 2 41 25 2 21 -5 29 -45 51 -104 57 -155 137 -161 255 -4 61 0 80 22
130 15 31 34 65 42 74 14 16 14 20 -1 43 -22 33 -28 33 -61 -6z"/>
<path d="M7708 5246 c-35 -15 -86 -63 -102 -96 -51 -99 -3 -226 101 -271 136
-58 285 37 285 181 0 72 -46 147 -112 180 -44 23 -129 26 -172 6z m131 -80
c39 -21 63 -62 63 -107 -1 -66 -46 -110 -112 -111 -50 -1 -87 24 -107 69 -21
51 -10 95 33 132 39 35 78 40 123 17z"/>
<path d="M8096 5064 c-9 -24 12 -54 39 -54 31 0 52 35 34 56 -16 19 -65 18
-73 -2z"/>
<path d="M8019 4864 c-44 -46 -95 -79 -148 -95 -48 -14 -58 -28 -41 -59 9 -17
17 -20 48 -14 62 10 142 56 188 107 49 54 53 71 25 87 -29 15 -34 13 -72 -26z"/>
<path d="M2260 4433 c-56 -20 -83 -89 -56 -141 20 -39 44 -52 94 -52 45 0 87
32 98 74 17 71 -66 144 -136 119z"/>
<path d="M6036 2494 c-32 -32 -8 -84 38 -84 43 0 65 51 36 80 -24 24 -53 26
-74 4z"/>
<path d="M4087 2379 c-22 -13 -47 -61 -47 -92 0 -30 34 -75 65 -87 33 -13 90
6 115 37 22 28 26 73 10 104 -22 40 -102 62 -143 38z"/>
</g>
</svg>
